<?xml version="1.0" standalone="no"?>
<!DOCTYPE svg PUBLIC "-//W3C//DTD SVG 20010904//EN"
 "http://www.w3.org/TR/2001/REC-SVG-20010904/DTD/svg10.dtd">
<svg version="1.0" xmlns="http://www.w3.org/2000/svg"
 width="1175.000000pt" height="1175.000000pt" viewBox="0 0 1175.000000 1175.000000"
 preserveAspectRatio="xMidYMid meet">
<metadata>
Created by potrace 1.14, written by Peter Selinger 2001-2017
</metadata>
<g transform="translate(0.000000,1175.000000) scale(0.100000,-0.100000)"
fill="#000000" stroke="none">
<path d="M5888 11635 c-1 -2 -97 -6 -213 -9 -115 -4 -221 -8 -235 -10 -14 -3
-65 -7 -114 -11 -50 -4 -97 -8 -105 -10 -9 -1 -38 -5 -66 -9 -370 -44 -934
-177 -1195 -281 -19 -7 -80 -30 -135 -50 -55 -20 -113 -43 -130 -50 -16 -7
-63 -28 -104 -45 -155 -67 -327 -149 -438 -211 -368 -203 -609 -364 -918 -613
-55 -44 -105 -85 -111 -91 -6 -5 -47 -41 -90 -80 -90 -80 -343 -330 -424 -421
-76 -84 -155 -175 -182 -210 -12 -16 -29 -35 -36 -43 -14 -14 -79 -99 -120
-155 -12 -17 -29 -39 -37 -49 -17 -20 -51 -68 -146 -207 -235 -342 -486 -835
-634 -1245 -79 -218 -197 -628 -220 -769 -3 -17 -8 -38 -10 -46 -6 -22 -13
-59 -39 -225 -27 -163 -30 -190 -50 -375 -28 -258 -28 -887 -1 -1100 2 -19 7
-60 10 -90 14 -127 21 -176 41 -295 8 -49 17 -106 20 -125 3 -19 17 -87 31
-150 13 -63 26 -123 28 -133 2 -10 7 -27 10 -37 3 -10 8 -27 10 -37 12 -63 74
-272 121 -410 192 -574 452 -1078 807 -1568 249 -343 523 -641 891 -970 6 -5
38 -32 71 -60 33 -27 62 -52 65 -55 3 -3 43 -34 90 -70 47 -35 90 -68 95 -73
30 -25 261 -185 325 -225 41 -26 77 -50 78 -54 2 -5 8 -8 13 -8 5 0 32 -15 61
-33 163 -104 495 -274 717 -367 126 -53 162 -67 174 -69 4 0 20 -7 35 -14 28
-15 242 -88 377 -131 74 -23 373 -101 427 -111 13 -3 46 -9 73 -15 82 -17 95
-19 215 -39 63 -11 140 -23 170 -27 30 -4 66 -8 80 -10 14 -2 54 -6 90 -10 36
-3 72 -7 80 -9 54 -10 315 -20 540 -20 270 0 464 9 615 30 22 3 65 8 95 11 30
3 93 11 140 19 47 7 105 17 130 20 25 3 119 22 210 42 91 19 173 37 183 39 10
2 27 6 37 9 10 3 27 8 37 10 127 27 563 172 703 232 65 29 95 41 160 68 335
140 814 420 1145 669 281 212 605 508 820 751 39 43 79 89 90 101 11 12 36 42
55 65 89 109 102 125 113 139 56 69 231 313 277 385 26 41 171 278 205 335
132 223 303 598 415 910 119 332 235 805 275 1126 4 27 8 58 10 70 2 11 6 52
10 90 4 38 8 85 11 104 26 237 26 817 -1 1075 -2 22 -6 65 -10 95 -3 30 -7 66
-9 80 -3 14 -9 66 -16 115 -6 50 -15 110 -20 135 -5 25 -11 59 -14 75 -10 68
-59 290 -96 432 -41 157 -152 506 -176 552 -8 14 -14 31 -14 36 0 9 -50 130
-125 305 -40 92 -213 429 -270 525 -78 133 -185 300 -270 420 -16 24 -39 56
-50 71 -41 59 -246 321 -290 370 -5 6 -44 49 -85 95 -121 136 -407 418 -513
507 -23 19 -62 51 -86 71 -24 20 -55 46 -70 59 -36 32 -279 214 -316 238 -16
10 -32 21 -35 24 -5 6 -137 93 -230 152 -192 121 -478 274 -680 362 -47 21
-99 44 -116 52 -224 100 -787 282 -951 307 -17 3 -35 7 -40 10 -4 3 -26 8 -48
11 -22 4 -47 8 -55 11 -8 2 -26 6 -40 9 -290 50 -367 62 -470 71 -30 3 -77 7
-105 10 -101 11 -154 15 -325 20 -96 3 -180 8 -187 10 -6 2 -13 2 -15 0z"/>
</g>
</svg>
